# xmcd
#
# Track frame offsets: 
#        150
#        26961
#        51529
#        70480
#        91463
#        110158
#        133428
#        159074
#        182232
#        198959
#
# Disc length: 2908 seconds
#
# Revision: 0
# Processed by: cddbd v1.5.2PL0 Copyright (c) Steve Scherf et al.
# Submitted via: ExactAudioCopy v1.0b3
#
DISCID=9a0b5a0a
DTITLE=Jim Carpenter - Poor Girl's Dream
DYEAR=2016
DGENRE=Country
TTITLE0=Aquamarine
TTITLE1=Poor Girl's Dream
TTITLE2=The Real Thing
TTITLE3=Irene
TTITLE4=Lie To Me
TTITLE5=Last Cigarette
TTITLE6=Little Victories
TTITLE7=Saving Little Marie
TTITLE8=Where The Tears Begin
TTITLE9=This Time I Think Her Leaving Means Goodbye
EXTD=
EXTT0=
EXTT1=
EXTT2=
EXTT3=
EXTT4=
EXTT5=
EXTT6=
EXTT7=
EXTT8=
EXTT9=
PLAYORDER=
